<svg xmlns="http://www.w3.org/2000/svg" xmlns:xlink="http://www.w3.org/1999/xlink" width="120" height="120" stroke-linecap="round">
    <g><path d="M78.55 15.417 C86.204 17.652, 94.12 24.47, 99.332 30.683 C104.544 36.895, 108.872 44.861, 109.822 52.692 C110.771 60.522, 108.351 70.099, 105.029 77.664 C101.707 85.23, 96.127 92.841, 89.889 98.086 C83.651 103.331, 75.522 107.931, 67.599 109.136 C59.677 110.341, 50.13 108.609, 42.355 105.316 C34.579 102.023, 26.006 95.984, 20.946 89.376 C15.885 82.767, 13.122 73.618, 11.99 65.665 C10.858 57.713, 11.068 48.901, 14.151 41.66 C17.234 34.419, 23.983 27.235, 30.487 22.221 C36.991 17.207, 44.199 12.14, 53.176 11.577 C62.153 11.015, 78.258 16.848, 84.348 18.847 C90.438 20.846, 89.993 22.836, 89.716 23.572" stroke="#ffb108" stroke-width="20" fill="none"/></g>
</svg>
