<svg version="1.1" xmlns="http://www.w3.org/2000/svg" viewBox="0 0 38.0555555555552 37.5" width="38.0555555555552" height="37.5">
  <g stroke-linecap="round" transform="translate(9.999999999999773 10) rotate(0 9.027777777777715 8.75)">
    <path d="M18.06 8.75 C18.06 9.26, 18.01 9.77, 17.92 10.27 C17.83 10.77, 17.69 11.27, 17.51 11.74 C17.33 12.22, 17.11 12.69, 16.85 13.13 C16.58 13.56, 16.28 13.99, 15.94 14.37 C15.61 14.76, 15.23 15.13, 14.83 15.45 C14.43 15.78, 13.99 16.07, 13.54 16.33 C13.09 16.58, 12.61 16.8, 12.12 16.97 C11.62 17.15, 11.11 17.28, 10.6 17.37 C10.08 17.46, 9.55 17.5, 9.03 17.5 C8.51 17.5, 7.97 17.46, 7.46 17.37 C6.95 17.28, 6.43 17.15, 5.94 16.97 C5.45 16.8, 4.97 16.58, 4.51 16.33 C4.06 16.07, 3.63 15.78, 3.22 15.45 C2.82 15.13, 2.45 14.76, 2.11 14.37 C1.78 13.99, 1.47 13.56, 1.21 13.13 C0.95 12.69, 0.72 12.22, 0.54 11.74 C0.37 11.27, 0.23 10.77, 0.14 10.27 C0.05 9.77, 0 9.26, 0 8.75 C0 8.24, 0.05 7.73, 0.14 7.23 C0.23 6.73, 0.37 6.23, 0.54 5.76 C0.72 5.28, 0.95 4.81, 1.21 4.38 C1.47 3.94, 1.78 3.51, 2.11 3.13 C2.45 2.74, 2.82 2.37, 3.22 2.05 C3.63 1.72, 4.06 1.43, 4.51 1.17 C4.97 0.92, 5.45 0.7, 5.94 0.53 C6.43 0.35, 6.95 0.22, 7.46 0.13 C7.97 0.04, 8.51 0, 9.03 0 C9.55 0, 10.08 0.04, 10.6 0.13 C11.11 0.22, 11.62 0.35, 12.12 0.53 C12.61 0.7, 13.09 0.92, 13.54 1.17 C13.99 1.43, 14.43 1.72, 14.83 2.05 C15.23 2.37, 15.61 2.74, 15.94 3.13 C16.28 3.51, 16.58 3.94, 16.85 4.37 C17.11 4.81, 17.33 5.28, 17.51 5.76 C17.69 6.23, 17.83 6.73, 17.92 7.23 C18.01 7.73, 18.03 8.5, 18.06 8.75 C18.08 9, 18.08 8.5, 18.06 8.75" stroke="none" stroke-width="0" fill="#4dabf7"></path><path d="M18.06 8.75 C18.06 9.26, 18.01 9.77, 17.92 10.27 C17.83 10.77, 17.69 11.27, 17.51 11.74 C17.33 12.22, 17.11 12.69, 16.85 13.13 C16.58 13.56, 16.28 13.99, 15.94 14.37 C15.61 14.76, 15.23 15.13, 14.83 15.45 C14.43 15.78, 13.99 16.07, 13.54 16.33 C13.09 16.58, 12.61 16.8, 12.12 16.97 C11.62 17.15, 11.11 17.28, 10.6 17.37 C10.08 17.46, 9.55 17.5, 9.03 17.5 C8.51 17.5, 7.97 17.46, 7.46 17.37 C6.95 17.28, 6.43 17.15, 5.94 16.97 C5.45 16.8, 4.97 16.58, 4.51 16.33 C4.06 16.07, 3.63 15.78, 3.22 15.45 C2.82 15.13, 2.45 14.76, 2.11 14.37 C1.78 13.99, 1.47 13.56, 1.21 13.13 C0.95 12.69, 0.72 12.22, 0.54 11.74 C0.37 11.27, 0.23 10.77, 0.14 10.27 C0.05 9.77, 0 9.26, 0 8.75 C0 8.24, 0.05 7.73, 0.14 7.23 C0.23 6.73, 0.37 6.23, 0.54 5.76 C0.72 5.28, 0.95 4.81, 1.21 4.38 C1.47 3.94, 1.78 3.51, 2.11 3.13 C2.45 2.74, 2.82 2.37, 3.22 2.05 C3.63 1.72, 4.06 1.43, 4.51 1.17 C4.97 0.92, 5.45 0.7, 5.94 0.53 C6.43 0.35, 6.95 0.22, 7.46 0.13 C7.97 0.04, 8.51 0, 9.03 0 C9.55 0, 10.08 0.04, 10.6 0.13 C11.11 0.22, 11.62 0.35, 12.12 0.53 C12.61 0.7, 13.09 0.92, 13.54 1.17 C13.99 1.43, 14.43 1.72, 14.83 2.05 C15.23 2.37, 15.61 2.74, 15.94 3.13 C16.28 3.51, 16.58 3.94, 16.85 4.37 C17.11 4.81, 17.33 5.28, 17.51 5.76 C17.69 6.23, 17.83 6.73, 17.92 7.23 C18.01 7.73, 18.03 8.5, 18.06 8.75 C18.08 9, 18.08 8.5, 18.06 8.75" stroke="#4dabf7" stroke-width="1" fill="none"></path>
  </g>
</svg>
